<svg xmlns="http://www.w3.org/2000/svg" xmlns:xlink="http://www.w3.org/1999/xlink" viewBox="0 0 522 550"><defs><style>.cls-1{fill:url(#retro);}.cls-2{font-size:134.78px;fill:#fff;font-family:SFAlienEncounters, SF Alien Encounters;}.cls-3{font-size:48.78px;fill:#0c0f1e;font-family:Streamster;}.cls-4{letter-spacing:-0.08em;}.cls-5{letter-spacing:-0.22em;}.cls-6{letter-spacing:-0.06em;}</style><linearGradient id="retro" x1="261" x2="261" y2="550" gradientUnits="userSpaceOnUse"><stop offset="0" stop-color="#f4a025"/><stop offset="0.1" stop-color="#f49b28"/><stop offset="0.23" stop-color="#f58c31"/><stop offset="0.36" stop-color="#f77340"/><stop offset="0.5" stop-color="#f95156"/><stop offset="0.65" stop-color="#fc2570"/><stop offset="0.76" stop-color="#ff0087"/></linearGradient></defs><g id="Layer_2" data-name="Layer 2"><g id="Layer_1-2" data-name="Layer 1"><path class="cls-1" d="M21.93,385.51H500.07a282.71,282.71,0,0,1-12.49,26.08H34.42A282.71,282.71,0,0,1,21.93,385.51ZM261,550a248.58,248.58,0,0,0,86.81-15.58H174.19A248.58,248.58,0,0,0,261,550ZM56.87,446.38H465.13a277.19,277.19,0,0,0,16.21-23.92H40.66A277.19,277.19,0,0,0,56.87,446.38Zm31.4,34.78H433.73a269.82,269.82,0,0,0,20.88-21.74H67.39A269.82,269.82,0,0,0,88.27,481.16ZM18.48,376.81h485a284.14,284.14,0,0,0,9.23-29H9.25A284.14,284.14,0,0,0,18.48,376.81ZM2.2,310.87A284.79,284.79,0,0,0,8,342.75H514a284.79,284.79,0,0,0,5.79-31.88ZM522,275C522,123.12,405.15,0,261,0S0,123.12,0,275a293.89,293.89,0,0,0,1.86,33H520.14A293.89,293.89,0,0,0,522,275ZM133.24,514.86H388.76a261,261,0,0,0,27.1-18.48H106.14A261,261,0,0,0,133.24,514.86Z"/><text class="cls-2" transform="translate(87.88 234.56)">PTCG</text><text class="cls-3" transform="translate(58.99 188.2) rotate(-13.98) scale(1.44 1)"><tspan class="cls-4">P</tspan><tspan x="31.95" y="0">ain</tspan><tspan class="cls-5" x="73.37" y="0"> </tspan><tspan x="77.86" y="0">Train</tspan></text><text class="cls-3" transform="translate(145.38 289.95) rotate(-13.98) scale(1.44 1)"><tspan class="cls-4">C</tspan><tspan x="42.34" y="0">ycling</tspan><tspan class="cls-6" x="118.98" y="0">G</tspan><tspan x="164.55" y="0">ang</tspan></text></g></g></svg>