<svg xmlns="http://www.w3.org/2000/svg" xmlns:xlink="http://www.w3.org/1999/xlink" viewBox="0 0 1014.15 301.22"><defs><style>.cls-1{stroke:#000;stroke-miterlimit:10;fill:url(#retro);}</style><linearGradient id="retro" x1="507.08" y1="0.5" x2="507.08" y2="300.72" gradientUnits="userSpaceOnUse"><stop offset="0" stop-color="#f4a025"/><stop offset="0.1" stop-color="#f49b28"/><stop offset="0.23" stop-color="#f58c31"/><stop offset="0.36" stop-color="#f77340"/><stop offset="0.5" stop-color="#f95156"/><stop offset="0.65" stop-color="#fc2570"/><stop offset="0.76" stop-color="#ff0087"/></linearGradient></defs><g id="Layer_2" data-name="Layer 2"><g id="Layer_1-2" data-name="Layer 1"><path class="cls-1" d="M.5,26.23V.5H204q26.86,0,37.45,25.73Zm0,34.32V34.81H243.92a12.29,12.29,0,0,0,.2,2.36,10.2,10.2,0,0,1,.21,1.93,16.41,16.41,0,0,1,.4,4.29V60.55Zm0,34.31V69.12H61.56V94.86Zm244.23,25.73a16.41,16.41,0,0,1-.4,4.29,10,10,0,0,1-.21,1.93,12.37,12.37,0,0,0-.2,2.36H.5V103.43H244.73Zm-3.25,17.16Q230.89,163.48,204,163.48H.5V137.75Zm-241,60V172.05H61.56v25.74Zm0,34.31V206.37H61.56V232.1Zm0,34.31V240.68H61.56v25.73Zm0,34.31V275H61.56v25.73ZM183.67,94.86V69.12h61.06V94.86Zm68.39-68.63V.5H496.29V26.23Zm0,34.32V34.81H496.29V60.55Zm95.66,34.31V69.12h61V94.86Zm0,34.31V103.43h61v25.74Zm0,34.31V137.75h61v25.73Zm0,34.31V172.05h61v25.74Zm0,34.31V206.37h61V232.1Zm0,34.31V240.68h61v25.73Zm0,34.31V275h61v25.73ZM517.05,60.55V43.39a15.47,15.47,0,0,1,.41-4.29,10.12,10.12,0,0,1,.2-1.93,13.15,13.15,0,0,0,.2-2.36H740.93V60.55Zm0,34.31V69.12h61.06V94.86Zm0,34.31V103.43h61.06v25.74Zm0,34.31V137.75h61.06v25.73Zm0,34.31V172.05h61.06v25.74Zm0,34.31V206.37h61.06V232.1Zm.81,34.31a13.23,13.23,0,0,0-.2-2.36,10,10,0,0,1-.2-1.93,15.42,15.42,0,0,1-.41-4.29V240.68H740.93v25.73Zm2.45-240.18Q530.48.51,557.76.5H740.93V26.23Zm37.45,274.49q-27.28,0-37.45-25.73H740.93v25.73ZM769.42,60.55V43.39a16,16,0,0,1,.4-4.29,10.2,10.2,0,0,1,.21-1.93,13.15,13.15,0,0,0,.2-2.36h243.42V60.55Zm0,34.31V69.12h61.06V94.86Zm0,34.31V103.43h61.06v25.74Zm0,34.31V137.75h61.06v25.73Zm0,34.31V172.05h61.06v25.74Zm0,34.31V206.37h61.06V232.1Zm.81,34.31a13.23,13.23,0,0,0-.2-2.36,10,10,0,0,1-.21-1.93,15.92,15.92,0,0,1-.4-4.29V240.68h244.23v25.73Zm2.44-240.18Q782.84.51,810.12.5h203.53V26.23Zm37.45,274.49q-27.27,0-37.45-25.73h241v25.73Zm61.06-171.55V103.43h142.47v25.74Zm0,34.31V137.75h142.47v25.73Zm81.41,34.31V172.05h61.06v25.74Zm0,34.31V206.37h61.06V232.1Z"/></g></g></svg>